# xmcd
#
# Track frame offsets:
#	150
#	18413
#	29378
#	41713
#	58396
#	71227
#	87227
#	98074
#	113629
#	127941
#	142653
#	162328
#	172868
#	184907
#
# Disc length: 2625 seconds
#
# Revision: 0
# Processed by: cddbd v1.5.2PL0 Copyright (c) Steve Scherf et al.
# Submitted via: dBpowerAMP V4.0
#
DISCID=b80a3f0e
DTITLE=BANDA TRANCAZO DE Arturo Camarillo - Más Arremangao!!!
DYEAR=2009
DGENRE=Banda
TTITLE0=POPURRI MEXICANO (sones)
TTITLE1=LAS CALLES DE CHIHUAHUA
TTITLE2=OYE TRAICIONERA
TTITLE3=FALSA TRAICION
TTITLE4=DUELE EL AMOR
TTITLE5=AMOR MORTAL
TTITLE6=CHICA ALBOROTADA
TTITLE7=NO PUEDO ESTAR SIN TI
TTITLE8=EL AUSENTE
TTITLE9=VEN A BAILAR
TTITLE10=TENGO MUCHO QUE APRENDER DE TI
TTITLE11=LA LOQUERA
TTITLE12=YA NO QUIERO VOLVER
TTITLE13=ME CAISTE DEL CIELO
EXTD=
EXTT0=
EXTT1=
EXTT2=
EXTT3=
EXTT4=
EXTT5=
EXTT6=
EXTT7=
EXTT8=
EXTT9=
EXTT10=
EXTT11=
EXTT12=
EXTT13=
PLAYORDER=
